<svg width="28" height="28" viewBox="0 0 28 28" fill="none" xmlns="http://www.w3.org/2000/svg">
<g clip-path="url(#clip0_29_365)">
<path d="M23.1933 21.5483C23.7067 20.7317 24.01 19.7867 24.01 18.76C24.01 15.855 21.665 13.51 18.76 13.51C15.855 13.51 13.51 15.855 13.51 18.76C13.51 21.665 15.855 24.01 18.7483 24.01C19.775 24.01 20.7317 23.7067 21.5367 23.1933L25.1767 26.8333L26.8333 25.1767L23.1933 21.5483ZM18.76 21.6767C17.9865 21.6767 17.2446 21.3694 16.6976 20.8224C16.1506 20.2754 15.8433 19.5335 15.8433 18.76C15.8433 17.9865 16.1506 17.2446 16.6976 16.6976C17.2446 16.1506 17.9865 15.8433 18.76 15.8433C19.5335 15.8433 20.2754 16.1506 20.8224 16.6976C21.3694 17.2446 21.6767 17.9865 21.6767 18.76C21.6767 19.5335 21.3694 20.2754 20.8224 20.8224C20.2754 21.3694 19.5335 21.6767 18.76 21.6767ZM18.34 11.76C17.4767 11.7833 16.6483 11.97 15.89 12.285L15.2483 11.3167L10.815 18.5267L7.30333 14.42L3.06833 21.1983L1.16667 19.8333L7 10.5L10.5 14.5833L15.1667 7L18.34 11.76ZM21.3617 12.3433C20.615 12.0167 19.81 11.8183 18.97 11.7717L24.9433 2.33333L26.8333 3.71L21.3617 12.3433Z" fill="#093732"/>
</g>
<defs>
<clipPath id="clip0_29_365">
<rect width="28" height="28" fill="white"/>
</clipPath>
</defs>
</svg>
