<svg width="29" height="29" viewBox="0 0 29 29" fill="none" xmlns="http://www.w3.org/2000/svg">
<g clip-path="url(#clip0_28_359)">
<path d="M15.7083 12.0833H13.2917V9.66667H15.7083V12.0833ZM15.7083 7.25H13.2917V1.20833H15.7083V7.25ZM8.45833 21.75C7.12916 21.75 6.05374 22.8375 6.05374 24.1667C6.05374 25.4958 7.12916 26.5833 8.45833 26.5833C9.78749 26.5833 10.875 25.4958 10.875 24.1667C10.875 22.8375 9.78749 21.75 8.45833 21.75ZM20.5417 21.75C19.2125 21.75 18.1371 22.8375 18.1371 24.1667C18.1371 25.4958 19.2125 26.5833 20.5417 26.5833C21.8708 26.5833 22.9583 25.4958 22.9583 24.1667C22.9583 22.8375 21.8708 21.75 20.5417 21.75ZM9.78749 15.7083H18.7896C19.6958 15.7083 20.4933 15.2129 20.9042 14.4637L25.375 5.99333L23.2604 4.83333L18.7896 13.2917H10.3071L5.15958 2.41667H1.20833V4.83333H3.62499L7.97499 14.0046L6.34374 16.9529C5.46166 18.5721 6.62166 20.5417 8.45833 20.5417H22.9583V18.125H8.45833L9.78749 15.7083Z" fill="#093732"/>
</g>
<defs>
<clipPath id="clip0_28_359">
<rect width="29" height="29" fill="white"/>
</clipPath>
</defs>
</svg>
