<svg width="30" height="30" viewBox="0 0 30 30" fill="none" xmlns="http://www.w3.org/2000/svg">
<path d="M25.8105 20.2617L23.9121 19.1602C24.6035 18.4395 25.4355 18.0938 25.4473 18.0879C25.8867 17.9121 26.1152 17.4199 25.9688 16.9688C25.8574 16.623 25.5352 16.3945 25.1777 16.3945C25.0664 16.3945 24.9609 16.418 24.8555 16.459C24.7969 16.4824 23.4258 17.0449 22.4004 18.2871L16.7578 15.0059L22.4004 11.7246C23.4258 12.9668 24.791 13.5293 24.8555 13.5527C24.9609 13.5938 25.0664 13.6172 25.1777 13.6172C25.5352 13.6172 25.8574 13.3828 25.9688 13.043C26.1152 12.5918 25.8867 12.0996 25.4473 11.9238C25.4414 11.918 24.6094 11.5723 23.9121 10.8516L25.8105 9.75C26.2324 9.50391 26.373 8.96484 26.1328 8.54297C25.9746 8.26758 25.6816 8.09766 25.3652 8.09766C25.2129 8.09766 25.0547 8.13867 24.9199 8.21484L23.0332 9.31641C22.7695 8.36719 22.875 7.47656 22.8809 7.44141C22.9453 6.9668 22.6406 6.52734 22.1777 6.42773C22.1191 6.41602 22.0605 6.41016 22.002 6.41016C21.5859 6.41016 21.2402 6.71484 21.1758 7.13672C21.1641 7.20117 20.9648 8.66016 21.5332 10.1953L15.9082 13.4766V7.66406C17.4844 7.38867 18.6504 6.48047 18.7031 6.43945C18.8848 6.29297 19.002 6.08789 19.0195 5.85352C19.0371 5.61914 18.9668 5.39648 18.8086 5.2207C18.6387 5.0332 18.3984 4.92188 18.1406 4.92188C17.9414 4.92188 17.7422 4.99219 17.584 5.11523C17.5781 5.12109 16.8691 5.66602 15.9082 5.91211V3.69727C15.9082 3.2168 15.4922 2.8125 15 2.8125C14.5078 2.8125 14.0918 3.2168 14.0918 3.69727V5.89453C13.1367 5.64844 12.4277 5.10352 12.416 5.09766C12.2578 4.97461 12.0645 4.9043 11.8594 4.9043C11.6016 4.9043 11.3613 5.01563 11.1914 5.20313C11.0332 5.37891 10.957 5.61328 10.9805 5.8418C10.998 6.07031 11.1152 6.27539 11.2969 6.42188C11.3496 6.46289 12.5156 7.37109 14.0918 7.64648V13.459L8.4668 10.1777C9.0293 8.6543 8.83008 7.18359 8.81836 7.11914C8.75977 6.69727 8.41406 6.39258 7.99805 6.39258C7.93945 6.39258 7.88086 6.39844 7.82227 6.41016C7.35937 6.50391 7.04883 6.95508 7.11914 7.42383C7.11914 7.43555 7.23633 8.33203 6.9668 9.29297L5.07422 8.20312C4.93945 8.12695 4.78711 8.08594 4.62891 8.08594C4.3125 8.08594 4.01953 8.25586 3.86133 8.53125C3.62109 8.95313 3.76172 9.49805 4.18359 9.73828L6.08203 10.8398C5.39648 11.5488 4.57617 11.9004 4.54687 11.9121C4.10742 12.0879 3.87891 12.5801 4.02539 13.0312C4.13672 13.377 4.45898 13.6055 4.81641 13.6055C4.92773 13.6055 5.0332 13.582 5.13867 13.541C5.19727 13.5176 6.56836 12.9551 7.59375 11.7129L13.2363 14.9941L7.59375 18.2754C6.56836 17.0332 5.20312 16.4707 5.13867 16.4473C5.0332 16.4063 4.92773 16.3828 4.81641 16.3828C4.45898 16.3828 4.13672 16.6172 4.02539 16.957C3.87891 17.4082 4.10742 17.8945 4.54687 18.0762C4.57617 18.0879 5.39648 18.4395 6.08203 19.1484L4.18359 20.25C3.76172 20.4961 3.62109 21.0352 3.86133 21.457C4.01953 21.7324 4.3125 21.9023 4.62891 21.9023C4.78125 21.9023 4.93945 21.8613 5.07422 21.7852L6.9668 20.6836C7.23633 21.6504 7.11914 22.5469 7.11914 22.5586C7.04883 23.0273 7.35937 23.4785 7.82227 23.5723C7.88086 23.584 7.93945 23.5898 7.99805 23.5898C8.41406 23.5898 8.75977 23.2852 8.82422 22.8633C8.83594 22.7988 9.03516 21.3398 8.4668 19.8047L14.0918 16.5234V22.3359C12.5156 22.6113 11.3496 23.5195 11.2969 23.5605C11.1152 23.707 10.998 23.9121 10.9805 24.1465C10.9629 24.3809 11.0332 24.6035 11.1914 24.7793C11.3613 24.9668 11.6016 25.0781 11.8594 25.0781C12.0586 25.0781 12.2578 25.0078 12.416 24.8848C12.4219 24.8789 13.1367 24.334 14.0918 24.0879V26.2852C14.0918 26.7656 14.5078 27.1699 15 27.1699C15.4922 27.1699 15.9082 26.7656 15.9082 26.2852V24.0879C16.8633 24.334 17.5723 24.8789 17.584 24.8848C17.7422 25.0078 17.9414 25.0781 18.1406 25.0781C18.3984 25.0781 18.6387 24.9668 18.8086 24.7793C18.9668 24.6035 19.043 24.3691 19.0195 24.1406C19.002 23.9121 18.8848 23.707 18.7031 23.5605C18.6504 23.5195 17.4844 22.6113 15.9082 22.3359V16.5234L21.5332 19.8047C20.9707 21.3281 21.1699 22.7988 21.1816 22.8633C21.2402 23.2852 21.5859 23.5898 22.002 23.5898C22.0605 23.5898 22.1191 23.584 22.1777 23.5723C22.6406 23.4785 22.9453 23.0332 22.8809 22.5586C22.875 22.5293 22.7695 21.6387 23.0332 20.6836L24.9199 21.7852C25.0547 21.8613 25.207 21.9023 25.3652 21.9023C25.6816 21.9023 25.9746 21.7324 26.1328 21.457C26.373 21.0527 26.2324 20.5078 25.8105 20.2617Z" fill="#093732"/>
</svg>
